<svg width="420" height="223" viewBox="0 0 420 223" fill="none" xmlns="http://www.w3.org/2000/svg">
<g clip-path="url(#clip0_2385_277083)">
<rect x="171.531" y="0.499512" width="110.227" height="110.227" rx="24.8011" transform="rotate(15 171.531 0.499512)" fill="#94A9CF"/>
<g filter="url(#filter0_d_2385_277083)">
<rect x="157.91" y="15.7461" width="104.978" height="104.978" rx="23.6201" fill="white"/>
</g>
<path d="M205.227 94.307H165.781C169.176 76.3432 188.634 39.1564 239.303 34.1191V35.7859L239.294 35.7876V38.1917C231.948 45.5377 225.33 67.0448 257.628 94.3053H211.515C210.651 92.0829 208.7 84.6752 207.811 72.8228C207.339 63.6714 212.446 44.2086 235.964 36.5675C219.739 40.9878 195.134 56.5618 205.227 94.307Z" fill="#495770"/>
</g>
<path d="M11.9 208C10.412 208 9.04799 207.649 7.80799 206.946C6.60932 206.202 5.63799 205.231 4.89399 204.032C4.19132 202.792 3.83999 201.428 3.83999 199.94V171.42C3.83999 169.932 4.19132 168.589 4.89399 167.39C5.63799 166.15 6.60932 165.179 7.80799 164.476C9.04799 163.732 10.412 163.36 11.9 163.36H40.42C41.8667 163.36 43.21 163.732 44.45 164.476C45.69 165.179 46.6613 166.15 47.364 167.39C48.108 168.589 48.48 169.932 48.48 171.42V199.94C48.48 201.428 48.108 202.792 47.364 204.032C46.6613 205.231 45.69 206.202 44.45 206.946C43.21 207.649 41.8667 208 40.42 208H11.9ZM12.086 201.304H40.234C40.6473 201.304 40.9987 201.159 41.288 200.87C41.5773 200.539 41.722 200.167 41.722 199.754V171.606C41.722 171.193 41.5773 170.841 41.288 170.552C40.9987 170.221 40.6473 170.056 40.234 170.056H12.086C11.6727 170.056 11.3007 170.221 10.97 170.552C10.6807 170.841 10.536 171.193 10.536 171.606V199.754C10.536 200.167 10.6807 200.539 10.97 200.87C11.3007 201.159 11.6727 201.304 12.086 201.304ZM61.3837 222.26V172.04H89.9037C91.3917 172.04 92.7351 172.412 93.9337 173.156C95.1737 173.9 96.1451 174.871 96.8477 176.07C97.5917 177.269 97.9637 178.612 97.9637 180.1V199.94C97.9637 201.428 97.5917 202.771 96.8477 203.97C96.1451 205.169 95.1737 206.14 93.9337 206.884C92.7351 207.628 91.3917 208 89.9037 208H68.0797V222.26H61.3837ZM69.6297 201.304H89.7177C90.1311 201.304 90.4824 201.159 90.7717 200.87C91.1024 200.539 91.2677 200.167 91.2677 199.754V180.286C91.2677 179.873 91.1024 179.521 90.7717 179.232C90.4824 178.901 90.1311 178.736 89.7177 178.736H69.6297C69.2164 178.736 68.8444 178.901 68.5137 179.232C68.2244 179.521 68.0797 179.873 68.0797 180.286V199.754C68.0797 200.167 68.2244 200.539 68.5137 200.87C68.8444 201.159 69.2164 201.304 69.6297 201.304ZM116.754 208C115.266 208 113.902 207.628 112.662 206.884C111.463 206.14 110.492 205.169 109.748 203.97C109.045 202.771 108.694 201.428 108.694 199.94V160.694H115.39V172.04H130.146V178.736H115.39V199.754C115.39 200.167 115.534 200.539 115.824 200.87C116.154 201.159 116.526 201.304 116.94 201.304H130.146V208H116.754ZM141.351 208V172.04H148.047V208H141.351ZM141.351 166.956V160.26H148.047V166.956H141.351Z" fill="white"/>
<path d="M160.441 192.464V186.2H183.641V192.464H160.441Z" fill="white"/>
<path d="M212.214 208V170.056H193.242V163.36H237.882V170.056H218.91V208H212.214ZM248.471 208V180.1C248.471 178.612 248.843 177.269 249.587 176.07C250.331 174.871 251.303 173.9 252.501 173.156C253.741 172.412 255.085 172.04 256.531 172.04H276.619V178.736H256.717C256.304 178.736 255.932 178.901 255.601 179.232C255.312 179.521 255.167 179.873 255.167 180.286V208H248.471ZM295.184 208C293.696 208 292.332 207.628 291.092 206.884C289.894 206.14 288.922 205.169 288.178 203.97C287.476 202.771 287.124 201.428 287.124 199.94V186.672H316.946V180.286C316.946 179.873 316.802 179.521 316.512 179.232C316.223 178.901 315.872 178.736 315.458 178.736H287.124V172.04H315.644C317.132 172.04 318.476 172.412 319.674 173.156C320.914 173.859 321.886 174.83 322.588 176.07C323.332 177.31 323.704 178.653 323.704 180.1V208H295.184ZM295.37 201.304H316.946V192.934H293.82V199.754C293.82 200.167 293.965 200.539 294.254 200.87C294.585 201.159 294.957 201.304 295.37 201.304ZM343.221 208C341.733 208 340.39 207.628 339.191 206.884C337.992 206.14 337.021 205.169 336.277 203.97C335.533 202.771 335.161 201.428 335.161 199.94V180.1C335.161 178.612 335.533 177.269 336.277 176.07C337.021 174.871 337.992 173.9 339.191 173.156C340.39 172.412 341.733 172.04 343.221 172.04H371.617V178.736H343.407C342.994 178.736 342.622 178.901 342.291 179.232C342.002 179.521 341.857 179.873 341.857 180.286V199.754C341.857 200.167 342.002 200.539 342.291 200.87C342.622 201.159 342.994 201.304 343.407 201.304H371.741V208H343.221ZM383.264 208V160.26H389.96V186.672H398.02L411.474 172.04H419.162V173.28L403.972 190.02L419.162 206.76V208H411.474L398.02 193.368H389.96V208H383.264Z" fill="white"/>
<defs>
<filter id="filter0_d_2385_277083" x="147.785" y="12.3711" width="125.227" height="125.228" filterUnits="userSpaceOnUse" color-interpolation-filters="sRGB">
<feFlood flood-opacity="0" result="BackgroundImageFix"/>
<feColorMatrix in="SourceAlpha" type="matrix" values="0 0 0 0 0 0 0 0 0 0 0 0 0 0 0 0 0 0 127 0" result="hardAlpha"/>
<feOffset dy="6.75"/>
<feGaussianBlur stdDeviation="5.0625"/>
<feComposite in2="hardAlpha" operator="out"/>
<feColorMatrix type="matrix" values="0 0 0 0 0 0 0 0 0 0 0 0 0 0 0 0 0 0 0.25 0"/>
<feBlend mode="normal" in2="BackgroundImageFix" result="effect1_dropShadow_2385_277083"/>
<feBlend mode="normal" in="SourceGraphic" in2="effect1_dropShadow_2385_277083" result="shape"/>
</filter>
<clipPath id="clip0_2385_277083">
<rect width="135" height="135" fill="white" transform="translate(142.5)"/>
</clipPath>
</defs>
</svg>
